<?xml version="1.0" encoding="UTF-8" standalone="no"?>
<!-- Created with Inkscape (http://www.inkscape.org/) -->

<svg
   width="115mm"
   height="75mm"
   viewBox="0 0 115 75"
   version="1.1"
   id="svg5"
   xmlns="http://www.w3.org/2000/svg"
   xmlns:svg="http://www.w3.org/2000/svg">
  <defs
     id="defs2" />
  <g
     id="layer1">
    <path
       id="path111"
       style="fill:#806600;fill-opacity:0.881818;stroke:#225016;stroke-width:7.422;stroke-linejoin:round;stroke-dasharray:none;stroke-opacity:1"
       d="m 56.40676,4.0349724 a 45.591,32.404568 0 0 0 -44.903197,26.9120586 8.1800842,5.505826 0 0 0 -7.6382926,5.49268 8.1800842,5.505826 0 0 0 7.6382926,5.49269 45.591,32.404568 0 0 0 44.903197,26.912048 45.591,32.404568 0 0 0 44.90269,-26.908428 8.1800842,5.505826 0 0 0 0.40204,0.01 8.1800842,5.505826 0 0 0 8.18038,-5.50613 8.1800842,5.505826 0 0 0 -8.18038,-5.5056 8.1800842,5.505826 0 0 0 -0.3762,0.009 A 45.591,32.404568 0 0 0 56.40676,4.0353724 Z" />
    <path
       style="fill:#d35f5f;fill-opacity:0.881818;stroke:#000000;stroke-width:7.42201;stroke-linejoin:round;stroke-dasharray:none;stroke-opacity:1"
       d="m 21.579489,46.718485 c 0.701873,-0.936969 1.384924,-1.799797 2.44716,-2.224691 0.217731,-0.08709 0.472289,-0.09239 0.667406,-0.222467 0.0617,-0.04114 -0.05244,-0.170035 0,-0.22247 0.104873,-0.104873 0.304237,0.0469 0.444939,0 1.611435,-0.537146 -0.350747,0.06414 0.667406,-0.444939 0.190119,-0.09506 2.07816,-0.222467 2.447158,-0.222467 0.271584,0 0.861526,-0.125412 1.112346,0 0.491892,0.245944 0.06904,0.138073 0.222469,0.444937 0.151186,0.302371 0.516221,0.587504 0.667406,0.889875 0.141777,0.283552 -0.07721,0.803514 0,1.112346 0.11375,0.455001 0.343197,0.876977 0.444939,1.334815 0.04826,0.21717 -0.07035,0.456353 0,0.667406 0.02344,0.07035 0.156142,-0.03317 0.222467,0 0.368377,0.184187 0.679088,0.543619 1.112346,0.667409 0.881076,0.25173 1.222854,0.11113 2.002221,0.22247 0.85893,0.1227 1.083313,0.30565 1.779751,0.44493 1.416024,0.28321 2.915973,-0.27412 4.226912,-0.6674 0.29286,-0.0879 0.627692,-0.0652 0.889876,-0.22247 0.142187,-0.0853 0.105217,-0.327689 0.222467,-0.444939 0.305755,-0.305755 0.774697,-0.397288 1.112345,-0.667406 1.883471,-1.506778 1.324639,-2.224691 4.004443,-2.224691 0.197112,0 0.751816,-0.06903 0.889875,0 1.287109,0.643554 1.684869,2.39023 2.892099,3.114567 1.78532,1.071189 2.05865,0.673679 4.00444,0.889879 0.60758,0.0675 1.30595,0.72344 2.00222,0.44493 0.64308,-0.25723 1.61634,-1.20092 2.00222,-1.779749 0.0411,-0.0617 -0.0524,-0.170031 0,-0.222469 0.62502,-0.62502 1.45846,-0.583383 2.22469,-0.889876 0.62963,-0.251852 1.06492,-0.587904 1.77975,-0.444937 3.46474,0.692947 2.97612,3.969831 4.89432,4.449381 2.98435,0.74609 4.42725,-1.75763 6.22913,-3.559505 0.29663,-0.296627 0.51467,-0.702273 0.88988,-0.889876 0.13265,-0.06633 0.32153,0.08227 0.44494,0 0.13797,-0.09198 0.10521,-0.327686 0.22247,-0.444939 0.041,-0.04099 0.62641,-0.181475 0.6674,-0.222469 0.0524,-0.05244 -0.0663,-0.189304 0,-0.222467 0.17251,-0.08626 3.64783,-0.03354 3.78197,0 0.58002,0.145002 1.07078,0.542372 1.55729,0.889875 0.47321,0.338008 0.81304,1.073928 1.33481,1.334813 0.0663,0.03316 0.17003,-0.05244 0.22247,0 0.0524,0.05244 -0.0663,0.189306 0,0.222469 0.21793,0.108966 0.87214,-0.04804 1.11234,0 0.22995,0.04599 0.43746,0.17648 0.66741,0.22247 2.23713,0.447419 1.98728,-2.20975 3.11457,-3.337036 0.36705,-0.367054 1.04525,0.08534 1.55728,0 1.17149,-0.195247 2.50877,-0.922047 3.78197,-0.667406 0.65449,0.130897 1.051,0.774821 1.55728,1.112345 0.18511,0.123404 0.45636,-0.07035 0.66741,0 0.19898,0.06633 0.25734,0.351137 0.44494,0.444937 0.28236,0.141179 1.03814,0 1.33481,0"
       id="path7357" />
  </g>
</svg>
